{"title":"Frosty The Snowman DVD 1969","uid":5238262,"size":263496930,"categoryP":"video","categoryS":"movies","magnet":"?xt=urn:btih:e843d47cac91503d92dfcb3e38b74dc70399c66d&amp;dn=Frosty+The+Snowman+DVD+1969&amp;tr=udp%3A%2F%2Ftracker.openbittorrent.com%3A80&amp;tr=udp%3A%2F%2Fopen.demonii.com%3A1337&amp;tr=udp%3A%2F%2Ftracker.coppersurfer.tk%3A6969&amp;tr=udp%3A%2F%2Fexodus.desync.com%3A6969","seeders":3,"leechers":0,"uploader":"IwannaFan2","files":1,"time":1261632548,"description":"File size                        : 251 MiB\nDuration                         : 26mn 11s\nOverall bit rate                 : 1 342 Kbps\n\nVideo\nID                               : 0\nFormat                           : MPEG-4 Visual\nFormat profile                   : Simple@L1\nFormat settings, BVOP            : No\nFormat settings, QPel            : No\nFormat settings, GMC             : No warppoints\nFormat settings, Matrix          : Default (H.263)\nCodec ID                         : DIVX\nCodec ID/Info                    : Project Mayo\nCodec ID/Hint                    : DivX 4\nDuration                         : 26mn 11s\nBit rate                         : 1 200 Kbps\nWidth                            : 720 pixels\nHeight                           : 480 pixels\nDisplay aspect ratio             : 4:3\nFrame rate                       : 29.970 fps\nStandard                         : NTSC\nResolution                       : 24 bits\nColorimetry                      : 4:2:0\nScan type                        : Progressive\nBits/(Pixel*Frame)               : 0.116\nStream size                      : 225 MiB (89%)\nWriting library                  : avc2.0.11.1110\n\nAudio\nID                               : 1\nFormat                           : MPEG Audio\nFormat version                   : Version 1\nFormat profile                   : Layer 3\nFormat_Settings_Mode             : Joint stereo / MS Stereo\nCodec ID                         : 55\nCodec ID/Hint                    : MP3\nDuration                         : 26mn 11s\nBit rate mode                    : Constant\nBit rate                         : 128 Kbps\nChannel(s)                       : 2 channels\nSampling rate                    : 48.0 KHz\nResolution                       : 16 bits\nStream size                      : 24.0 MiB (10%)\nAlignment                        : Aligned on interleaves\nInterleave, duration             : 24 ms (0.72 video frame)","torrent":{"xt":"urn:btih:e843d47cac91503d92dfcb3e38b74dc70399c66d","amp;dn":"Frosty+The+Snowman+DVD+1969","amp;tr":["udp%3A%2F%2Ftracker.openbittorrent.com%3A80","udp%3A%2F%2Fopen.demonii.com%3A1337","udp%3A%2F%2Ftracker.coppersurfer.tk%3A6969","udp%3A%2F%2Fexodus.desync.com%3A6969"],"infoHash":"e843d47cac91503d92dfcb3e38b74dc70399c66d","infoHashBuffer":{"type":"Buffer","data":[232,67,212,124,172,145,80,61,146,223,203,62,56,183,77,199,3,153,198,109]},"announce":[],"urlList":[]}}